USFL
nRows=119
nColumns=2
inDegrees=yes
endheader
time	soleus_r	
2.87482	 31.750251	
2.93731	 31.781051	
2.99981	 31.788193	
3.0623	 31.780659	
3.1248	 31.789076	
3.1873	 31.768463	
3.24979	 31.715429	
3.31229	 31.705174	
3.37478	 31.693451	
3.43728	 31.713136	
3.49978	 31.694643	
3.56227	 31.681453	
3.62477	 31.678528	
3.68726	 31.726034	
3.74976	 31.743662	
3.81226	 31.847727	
3.87475	 31.899381	
3.93725	 31.843501	
3.99974	 31.846034	
4.06224	 31.866990	
4.12474	 31.925741	
4.18723	 30.346460	
4.24973	 30.258485	
4.31222	 30.105377	
4.37472	 27.989009	
4.43722	 27.962790	
4.49971	 27.942441	
4.56221	 27.921648	
4.6247	 28.008985	
4.6872	 23.668997	
4.7497	 23.617054	
4.81219	 23.612245	
4.87469	 23.545612	
4.93718	 23.535641	
4.99968	 23.519108	
5.06218	 23.400421	
5.12467	 23.400797	
5.18717	 23.358930	
5.24966	 23.334216	
5.31216	 23.321196	
5.37466	 23.282528	
5.43715	 17.824542	
5.49965	 17.757410	
5.56214	 17.724635	
5.62464	 17.740914	
5.68714	 17.759453	
5.74963	 17.768609	
5.81213	 17.799641	
5.87462	 17.770945	
5.93712	 17.739498	
5.99962	 17.773742	
6.06211	 17.780721	
6.12461	 17.826800	
6.1871	 17.836221	
6.2496	 17.880007	
6.3121	 17.922280	
6.37459	 17.971842	
6.43709	 18.026765	
6.49958	 18.043709	
6.56208	 18.034511	
6.62458	 18.060482	
6.68707	 18.013498	
6.74957	 18.063468	
6.81206	 18.066246	
6.87456	 18.035892	
6.93706	 17.990194	
6.99955	 18.044495	
7.06205	 18.014776	
7.12454	 17.987642	
7.18704	 18.009666	
7.24954	 17.919924	
7.31203	 17.871951	
7.37453	 17.895447	
7.43702	 17.864636	
7.49952	 17.963882	
7.56202	 17.954960	
7.62451	 18.013955	
7.68701	 18.035307	
7.7495	 18.026581	
7.812	 18.020785	
7.8745	 18.019972	
7.93699	 18.034071	
7.99949	 17.977844	
8.06198	 17.851201	
8.12448	 17.808269	
8.18698	 17.917615	
8.24947	 17.924729	
8.31197	 17.911177	
8.37446	 17.782264	
8.43696	 17.665841	
8.49946	 17.620644	
8.56195	 17.594598	
8.62445	 17.571198	
8.68694	 17.592240	
8.74944	 17.827207	
8.81194	 18.041742	
8.87443	 18.074182	
8.93693	 18.133687	
8.99942	 18.247937	
9.06192	 18.300670	
9.12442	 18.275990	
9.18691	 18.309499	
9.24941	 18.358427	
9.3119	 18.375776	
9.3744	 18.365286	
9.4369	 18.371549	
9.49939	 18.407123	
9.56189	 18.581301	
9.62438	 18.656655	
9.68688	 18.640862	
9.74938	 18.602002	
9.81187	 18.629379	
9.87437	 18.738913	
9.93686	 21.485853	
9.99936	 27.780601	
10.0619	 27.606192	
10.1244	 27.545271	
10.1868	 27.569680	
10.2493	 27.559526	
